<svg width="150" height="150" viewBox="0 0 150 150" fill="none" xmlns="http://www.w3.org/2000/svg">
<g id="frame">
<g id="loop">
<path id="Ellipse 1" d="M30.8555 56.5496C35.3676 45.9196 43.5246 37.2484 53.8593 32.0957C64.194 26.943 76.0282 25.647 87.2331 28.4407C98.4381 31.2344 108.279 37.9345 114.985 47.3359C121.69 56.7373 124.822 68.223 123.815 79.7271" stroke="white" stroke-width="8"/>
<path id="Ellipse 2" d="M120.144 94.4505C115.632 105.08 107.475 113.752 97.1405 118.904C86.8058 124.057 74.9717 125.353 63.7667 122.559C52.5617 119.766 42.7213 113.066 36.0153 103.664C29.3094 94.2627 26.178 82.777 27.1845 71.273" stroke="white" stroke-width="8"/>
<path id="Vector 1" d="M15.8147 78.6127L27.1919 68.0033L37.8013 79.3805" stroke="white" stroke-width="5" stroke-linecap="round"/>
<path id="Vector 2" d="M134.623 72.3602L122.706 82.3596L112.707 70.4428" stroke="white" stroke-width="5" stroke-linecap="round"/>
</g>
</g>
</svg>
